<svg xmlns="http://www.w3.org/2000/svg" height="800" width="1200" version="1.0" viewBox="-63.69555 -27.214 552.0281 163.284"><path d="M57.453 107.445c-1.888-1.38-1.846-1.74 1.873-16.42 2.091-8.256 4.02-17.634 4.286-20.84l.484-5.829-4.983 9.667c-8.875 17.218-15.41 25.579-23.868 30.536-5.3 3.106-15.12 4.152-21.698 2.31C.137 103.115-4.65 85.17 5.31 75.99c5.998-5.528 23.153-3.314 21.231 2.741-.633 1.995-1.152 2.156-5.063 1.57-3.812-.572-4.679-.334-6.917 1.905-1.98 1.98-2.56 3.568-2.56 7.016 0 3.748.489 4.867 3.077 7.045 5.307 4.465 13.46 3 20.028-3.599 4.538-4.558 12.348-18.912 22.348-41.07 10.39-23.024 16.643-35.453 22.075-43.873C84.452.093 85.234-.553 88.542.277c3.746.94 3.942 4.314.673 11.614-6.165 13.768-10.596 29.95-11.767 42.965l-.674 7.5 9.774-14c12.405-17.767 19.574-26.661 30.834-38.25 7.186-7.396 9.557-9.25 11.834-9.25 3.581 0 4.652 2.47 2.566 5.918-.858 1.42-5.927 9.782-11.263 18.582-19.779 32.618-28.733 56.563-25.56 68.349 1.366 5.072 3.667 5.884 9.264 3.273 6.105-2.848 9.197-6.029 12.805-13.176 6.598-13.071 19.685-22.946 30.41-22.946 2.814 0 6.017.63 7.116 1.4 1.714 1.2 2.273 1.2 3.914 0 2.495-1.825 6.963-1.791 8.502.064.987 1.189.18 3.488-4.301 12.25-3.034 5.932-6.557 12.667-7.829 14.967-1.271 2.299-2.004 4.488-1.628 4.864 2.289 2.289 12.626-8.704 23.15-24.617 3.638-5.501 3.666-5.618 2.162-9.218-1.955-4.678-1.958-13.969-.006-17.743 1.639-3.17 6.097-5.967 9.51-5.967 1.17 0 3.442 1.315 5.05 2.923 2.386 2.387 2.923 3.77 2.923 7.54 0 2.643-.855 6.292-2 8.537-2.633 5.161-2.576 5.355 1.392 4.711 4.107-.666 7.608 1.452 7.608 4.603 0 1.214-3.177 6.23-7.087 11.193-13.235 16.795-15.372 25.219-5.334 21.024 6.543-2.733 9.855-5.995 25.426-25.037 11.34-13.868 15.676-18.494 17.336-18.494 2.557 0 6.659 2.597 6.659 4.216 0 .606-1.873 3.583-4.162 6.614l-4.161 5.512 1.327 4.58c.73 2.518 1.523 6.49 1.762 8.828.24 2.338.656 4.25.926 4.25s3.08-1.817 6.247-4.038c4.594-3.223 6.277-5.193 8.327-9.75 11.21-24.922 20.095-44.076 21.32-45.962 1.727-2.662 7.449-3.118 9.414-.75 1.328 1.6 1.305 1.665-9.365 26.776l-4.579 10.775 4.31-2.525c4.727-2.77 8.404-3.204 10.815-1.276 2.271 1.816 3.844 7.354 3.137 11.05-.639 3.338-5.356 13.156-9.827 20.45-1.554 2.537-2.12 4.25-1.4 4.25 2.698 0 9.755-7.166 12.42-12.613 3.503-7.16 14.328-18.227 20.989-21.46 6.315-3.065 14.31-3.314 17.374-.54 1.813 1.64 2.161 1.684 2.677.34 1.26-3.284 10.449-2.753 10.449.604 0 .759-3.15 7.46-7 14.89-3.85 7.43-7 14.484-7 15.676 0 3.823 2.742 3.505 8.04-.931 4.07-3.407 6.02-6.224 9.932-14.353 9.736-20.225 24.513-38.856 38.014-47.927 7.862-5.281 15.014-4.733 15.014 1.152 0 3.124-6.476 17.087-10.922 23.548-4.542 6.602-14.711 16.117-24.15 22.596-10.373 7.12-10.768 7.57-11.529 13.122-.742 5.413 1.82 8.56 6.094 7.487 4.46-1.12 13.62-11.555 19.467-22.175 7.694-13.976 11.517-19.913 17.883-27.77 6.668-8.229 20.894-20.21 25.093-21.132 4.095-.9 6.945.166 7.619 2.85.705 2.81-3.255 13.837-7.678 21.377-4.16 7.091-17.919 20.895-28.167 28.259-8.05 5.784-9.746 8.736-8.308 14.465 1.855 7.392 10.39 4.304 19.744-7.144 5.434-6.65 6.285-7.319 7.615-5.988 2.163 2.162 1.04 5.148-4.888 13.002-5.614 7.436-13.264 13.158-18.962 14.182-6.277 1.128-12.958-3.25-15.23-9.984-.179-.532-1.868.488-3.753 2.266-4.741 4.47-12.565 8.201-17.201 8.201-2.956 0-4.578-.697-6.804-2.923-1.608-1.608-2.923-3.858-2.923-5s-.244-2.077-.543-2.077c-.299 0-2.886 1.769-5.75 3.93-8.797 6.64-13.39 7.153-17.593 1.963l-1.684-2.08-3.465 2.039c-1.906 1.12-5.61 2.516-8.23 3.1-5.549 1.238-9.741-.074-13.592-4.252L284.786 101l-3.971 2.877c-6.063 4.392-10.054 5.425-13.692 3.543-3.763-1.946-6.13-5.257-6.099-8.536.013-1.39 2.713-7.673 6-13.963 3.287-6.29 5.977-11.802 5.977-12.25 0-1.92-2.863-.47-7.925 4.01-4.7 4.16-6.18 6.469-11.064 17.237-6.447 14.218-8.86 16.653-13.761 13.886-2.869-1.62-3.55-5.238-1.756-9.336.543-1.24-1.658-.143-6.414 3.197-11.979 8.412-21.628 9.1-28.248 2.012l-2.674-2.862-5.329 3.19c-3.81 2.28-6.957 3.318-11.039 3.638-5.307.417-5.924.234-8.75-2.592-2.21-2.21-3.04-3.98-3.04-6.483 0-4.8 5.909-16.104 11.966-22.891 3.174-3.557 4.656-5.935 3.964-6.363-1.343-.83-.86-1.38-10.412 11.869-10.536 14.616-16.596 21.035-22.749 24.102-6.248 3.113-10.4 3.268-13.349.497l-2.208-2.074-4.066 2.074c-5.296 2.702-12.56 2.73-16.93.066-1.806-1.102-3.538-2.666-3.849-3.476-.456-1.19-1.376-.917-4.76 1.411-7.12 4.9-15.766 6.052-21.847 2.913-4.65-2.4-6.37-12.736-4.47-26.839l.742-5.5-3.129 5.5c-8.675 15.25-19.033 29-21.847 29-.371 0-1.543-.635-2.604-1.411zM220.546 98.4c1.993-1.993 2.452-3.45 2.44-7.75-.015-6.131-.866-10.002-2.108-9.586-1.762.59-9.878 11.337-9.878 13.08 0 1.964 4.244 6.711 6 6.711.6 0 2.196-1.105 3.546-2.455zm88.164-5.028c8.31-7.114 14.235-24.526 8.617-25.326-7.385-1.052-21.355 14.819-21.631 24.575-.2 7.03 5.306 7.348 13.014.75zm-172.558 1.602c6.772-4.295 12.352-13.222 13.5-21.596.68-4.959-.578-6.26-4.983-5.155-9.16 2.3-22.904 23.028-18.66 28.143 1.866 2.248 5.104 1.803 10.143-1.392zm231.627-33.869c7.146-7.034 17.595-22.25 15.28-22.25-.463 0-4.397 3.756-8.742 8.347-7.579 8.006-17.239 21.653-15.328 21.653.504 0 4.46-3.487 8.79-7.75zm32.675-1.75c4.928-4.532 14.837-20.5 12.722-20.5-2.894 0-23.176 25.674-23.176 29.337 0 .593 2.108-.927 4.684-3.379a863.172 863.172 0 015.77-5.458zm-212.57-7.599c.97-2.779.143-6.901-1.384-6.901-1.274 0-2.545 4.515-1.987 7.059.833 3.79 2.015 3.735 3.372-.158z"/></svg>