<?xml version="1.0"?>
<svg width="552.0281" height="163.284" xmlns="http://www.w3.org/2000/svg" xmlns:svg="http://www.w3.org/2000/svg" version="1.0">
 <g class="layer">
  <title>Layer 1</title>
  <path d="m57.45,108.44c-1.88,-1.38 -1.84,-1.74 1.88,-16.42c2.09,-8.25 4.02,-17.63 4.28,-20.84l0.49,-5.82l-4.99,9.66c-8.87,17.22 -15.41,25.58 -23.86,30.54c-5.3,3.1 -15.12,4.15 -21.7,2.31c-13.41,-3.76 -18.2,-21.7 -8.24,-30.88c6,-5.53 23.15,-3.31 21.23,2.74c-0.63,2 -1.15,2.16 -5.06,1.57c-3.81,-0.57 -4.68,-0.33 -6.92,1.91c-1.98,1.98 -2.56,3.56 -2.56,7.01c0,3.75 0.49,4.87 3.08,7.05c5.31,4.46 13.46,3 20.03,-3.6c4.53,-4.56 12.34,-18.91 22.34,-41.07c10.39,-23.03 16.65,-35.46 22.08,-43.88c4.92,-7.63 5.7,-8.27 9.01,-7.44c3.75,0.94 3.94,4.31 0.68,11.61c-6.17,13.77 -10.6,29.95 -11.77,42.97l-0.68,7.5l9.78,-14c12.4,-17.77 19.57,-26.66 30.83,-38.25c7.19,-7.4 9.56,-9.25 11.84,-9.25c3.58,0 4.65,2.47 2.56,5.91c-0.86,1.42 -5.92,9.79 -11.26,18.59c-19.78,32.61 -28.73,56.56 -25.56,68.35c1.37,5.07 3.67,5.88 9.26,3.27c6.11,-2.85 9.2,-6.03 12.81,-13.18c6.6,-13.07 19.68,-22.94 30.41,-22.94c2.81,0 6.01,0.63 7.11,1.4c1.72,1.2 2.28,1.2 3.92,0c2.49,-1.83 6.96,-1.79 8.5,0.06c0.99,1.19 0.18,3.49 -4.3,12.25c-3.04,5.93 -6.56,12.67 -7.83,14.97c-1.27,2.3 -2,4.49 -1.63,4.86c2.29,2.29 12.63,-8.7 23.15,-24.62c3.64,-5.5 3.67,-5.61 2.16,-9.21c-1.95,-4.68 -1.95,-13.97 0,-17.75c1.64,-3.17 6.1,-5.96 9.51,-5.96c1.17,0 3.44,1.31 5.05,2.92c2.38,2.39 2.92,3.77 2.92,7.54c0,2.64 -0.85,6.29 -2,8.54c-2.63,5.16 -2.57,5.35 1.39,4.71c4.11,-0.67 7.61,1.45 7.61,4.6c0,1.21 -3.18,6.23 -7.09,11.19c-13.23,16.8 -15.37,25.22 -5.33,21.03c6.54,-2.74 9.86,-6 25.43,-25.04c11.34,-13.87 15.67,-18.49 17.33,-18.49c2.56,0 6.66,2.59 6.66,4.21c0,0.61 -1.87,3.58 -4.16,6.62l-4.16,5.51l1.32,4.58c0.73,2.52 1.53,6.49 1.77,8.83c0.24,2.33 0.65,4.25 0.92,4.25s3.08,-1.82 6.25,-4.04c4.59,-3.23 6.28,-5.19 8.33,-9.75c11.21,-24.92 20.09,-44.08 21.32,-45.96c1.72,-2.67 7.45,-3.12 9.41,-0.75c1.33,1.6 1.31,1.66 -9.36,26.77l-4.58,10.78l4.31,-2.53c4.72,-2.77 8.4,-3.2 10.81,-1.27c2.27,1.81 3.85,7.35 3.14,11.05c-0.64,3.33 -5.36,13.15 -9.83,20.45c-1.55,2.53 -2.12,4.25 -1.4,4.25c2.7,0 9.76,-7.17 12.42,-12.62c3.5,-7.16 14.33,-18.22 20.99,-21.46c6.32,-3.06 14.31,-3.31 17.37,-0.54c1.82,1.64 2.17,1.69 2.68,0.34c1.26,-3.28 10.45,-2.75 10.45,0.61c0,0.76 -3.15,7.46 -7,14.89c-3.85,7.43 -7,14.48 -7,15.67c0,3.83 2.74,3.51 8.04,-0.93c4.07,-3.4 6.02,-6.22 9.93,-14.35c9.74,-20.23 24.52,-38.86 38.02,-47.93c7.86,-5.28 15.01,-4.73 15.01,1.15c0,3.13 -6.47,17.09 -10.92,23.55c-4.54,6.6 -14.71,16.12 -24.15,22.6c-10.37,7.12 -10.77,7.57 -11.53,13.12c-0.74,5.41 1.82,8.56 6.09,7.49c4.46,-1.12 13.62,-11.56 19.47,-22.18c7.7,-13.97 11.52,-19.91 17.88,-27.77c6.67,-8.23 20.9,-20.21 25.1,-21.13c4.09,-0.9 6.94,0.17 7.62,2.85c0.7,2.81 -3.26,13.84 -7.68,21.38c-4.16,7.09 -17.92,20.89 -28.17,28.26c-8.05,5.78 -9.74,8.73 -8.31,14.46c1.86,7.39 10.39,4.31 19.75,-7.14c5.43,-6.65 6.28,-7.32 7.61,-5.99c2.17,2.16 1.04,5.15 -4.89,13c-5.61,7.44 -13.26,13.16 -18.96,14.18c-6.27,1.13 -12.96,-3.25 -15.23,-9.98c-0.18,-0.53 -1.87,0.49 -3.75,2.27c-4.74,4.47 -12.57,8.2 -17.2,8.2c-2.96,0 -4.58,-0.7 -6.81,-2.93c-1.6,-1.6 -2.92,-3.85 -2.92,-5s-0.24,-2.07 -0.54,-2.07c-0.3,0 -2.89,1.77 -5.75,3.93c-8.8,6.64 -13.39,7.15 -17.59,1.96l-1.69,-2.08l-3.46,2.04c-1.91,1.12 -5.61,2.51 -8.23,3.1c-5.55,1.24 -9.74,-0.08 -13.6,-4.25l-2.35,-2.56l-3.98,2.88c-6.06,4.39 -10.05,5.42 -13.69,3.54c-3.76,-1.95 -6.13,-5.26 -6.1,-8.54c0.02,-1.39 2.72,-7.67 6,-13.96c3.29,-6.29 5.98,-11.8 5.98,-12.25c0,-1.92 -2.86,-0.47 -7.92,4.01c-4.7,4.16 -6.18,6.47 -11.07,17.24c-6.45,14.22 -8.86,16.65 -13.76,13.88c-2.87,-1.62 -3.55,-5.23 -1.76,-9.33c0.55,-1.24 -1.65,-0.14 -6.41,3.2c-11.98,8.41 -21.63,9.1 -28.25,2.01l-2.67,-2.86l-5.33,3.19c-3.81,2.28 -6.96,3.31 -11.04,3.63c-5.31,0.42 -5.92,0.24 -8.75,-2.59c-2.21,-2.21 -3.04,-3.98 -3.04,-6.48c0,-4.8 5.91,-16.11 11.97,-22.89c3.17,-3.56 4.65,-5.94 3.96,-6.37c-1.34,-0.83 -0.86,-1.38 -10.41,11.87c-10.54,14.62 -16.6,21.04 -22.75,24.11c-6.25,3.11 -10.4,3.26 -13.35,0.49l-2.21,-2.07l-4.06,2.07c-5.3,2.7 -12.56,2.73 -16.93,0.07c-1.81,-1.1 -3.54,-2.67 -3.85,-3.48c-0.46,-1.19 -1.38,-0.91 -4.76,1.41c-7.12,4.9 -15.77,6.06 -21.85,2.92c-4.65,-2.4 -6.37,-12.74 -4.47,-26.84l0.74,-5.5l-3.13,5.5c-8.67,15.25 -19.03,29 -21.84,29c-0.37,0 -1.55,-0.64 -2.61,-1.41l0,-0.01zm163.1,-9.04c1.99,-1.99 2.45,-3.45 2.44,-7.75c-0.02,-6.13 -0.87,-10 -2.11,-9.59c-1.76,0.59 -9.88,11.34 -9.88,13.08c0,1.97 4.24,6.72 6,6.72c0.6,0 2.2,-1.11 3.55,-2.46zm88.16,-5.03c8.31,-7.11 14.23,-24.52 8.62,-25.32c-7.39,-1.06 -21.36,14.81 -21.63,24.57c-0.2,7.03 5.3,7.35 13.01,0.75zm-172.56,1.6c6.77,-4.29 12.35,-13.22 13.5,-21.59c0.68,-4.96 -0.58,-6.26 -4.98,-5.16c-9.16,2.3 -22.91,23.03 -18.66,28.15c1.86,2.24 5.1,1.8 10.14,-1.4zm231.63,-33.86c7.15,-7.04 17.59,-22.25 15.28,-22.25c-0.46,0 -4.4,3.75 -8.74,8.34c-7.58,8.01 -17.24,21.66 -15.33,21.66c0.5,0 4.46,-3.49 8.79,-7.75zm32.67,-1.75c4.93,-4.54 14.84,-20.5 12.73,-20.5c-2.9,0 -23.18,25.67 -23.18,29.33c0,0.6 2.11,-0.92 4.68,-3.38a863.17,863.17 0 0 1 5.77,-5.45zm-212.57,-7.6c0.97,-2.78 0.15,-6.9 -1.38,-6.9c-1.27,0 -2.54,4.51 -1.99,7.05c0.84,3.79 2.02,3.74 3.38,-0.15l-0.01,0z" fill="#ffffff" id="svg_1"/>
 </g>
</svg>